<svg width="93" height="66" viewBox="0 0 93 66" fill="none" xmlns="http://www.w3.org/2000/svg">
<path d="M85.2885 41.7806L84.6557 43.0004C84.4402 43.4039 84.2751 43.8395 84.0045 44.2156L83.2754 45.3941C83.0369 45.7931 82.7939 46.1874 82.4912 46.5451C81.3907 48.0492 80.1479 49.4662 78.7493 50.7456C78.3412 51.1308 77.9193 51.4977 77.4882 51.86C66.7301 51.8646 59.127 49.1223 53.9084 43.6194C53.3627 43.0462 53.5507 42.5143 54.1194 42.3354C102.192 27.3309 71.724 4.1455 42.921 13.5508C40.22 11.5973 36.2992 11.0745 32.0437 11.5514C32.8049 10.8223 33.5936 10.1299 34.4099 9.4787C37.6979 6.89694 41.5178 5.08557 45.4523 3.92997C49.4098 2.80188 53.5232 2.43044 57.5495 2.68265C65.602 3.2788 73.2281 6.54384 78.7539 11.7578C81.5557 14.3166 83.7615 17.412 85.2931 20.7321C86.8614 24.0384 87.6639 27.6428 87.6089 31.2609C87.6502 34.8745 86.8614 38.4788 85.2885 41.7806ZM45.4615 58.5735C42.2744 57.638 39.1699 56.2623 36.3497 54.4096C39.2937 51.2042 41.4719 48.1089 43.054 46.0269C44.1362 44.6054 44.9525 44.9906 45.7687 45.8068C50.4829 50.5118 56.747 56.4916 63.2495 58.9266C61.3877 59.3668 59.4801 59.6695 57.5449 59.8116C53.5324 60.0684 49.4144 59.697 45.4615 58.5735ZM12.0453 59.0137C7.73016 58.8257 6.76257 54.992 8.24376 51.9746C12.1875 43.9359 22.4733 37.5296 32.6582 36.2685C40.3943 34.6819 38.6288 31.4718 35.3316 29.3441C35.3316 29.3441 31.0073 26.5514 34.4328 24.0155C58.3703 6.27787 96.8308 21.2365 51.8127 36.3923C50.6892 36.7684 49.2172 36.1218 50.437 34.5305C57.0726 25.8727 57.8888 21.8464 51.6247 24.2356C48.7724 25.3178 33.158 59.9263 12.0453 59.0137ZM16.4568 25.3407C20.4831 20.943 25.8346 17.5266 32.273 17.5312C33.4973 17.5312 33.6166 18.4759 32.9516 19.0308C31.7869 20.0121 30.3836 21.1815 29.439 21.961C26.7655 24.1714 25.8208 26.1386 27.3525 28.3811C28.0587 29.4174 27.5588 29.8439 26.8251 30.0273C25.3669 30.3942 24.0553 30.7519 23.1657 30.9261C15.6405 32.3798 13.3064 28.7846 16.4568 25.3407ZM89.5166 18.6639C87.5906 14.766 84.8116 11.3176 81.5053 8.52487C74.8743 2.90735 66.1844 -0.00458032 57.5541 5.4078e-06C48.9237 0.0321055 40.2613 2.9899 33.6808 8.61658C32.5389 9.58875 31.4659 10.6481 30.4708 11.767C15.0536 14.3166 -3.23431 28.9726 15.7414 36.507C-16.698 59.0183 8.27127 72.3307 25.8805 62.9712C29.7187 60.7655 32.8829 58.0324 35.4876 55.3222C41.8021 60.0134 49.685 62.4759 57.5495 62.508C62.635 62.5126 67.739 61.4946 72.4347 59.5135C73.6362 59.1513 74.8239 58.5872 75.9887 57.7893C77.9376 56.7025 79.7903 55.4368 81.5007 53.9878C84.8116 51.195 87.5906 47.7466 89.5166 43.8487C91.4472 39.9554 92.4973 35.6128 92.4973 31.2563C92.4927 26.8999 91.4472 22.5572 89.5166 18.6639Z" fill="#001AFF"/>
</svg>
