<?xml version="1.0" encoding="utf-8"?>
<!-- Generator: Adobe Illustrator 26.3.1, SVG Export Plug-In . SVG Version: 6.00 Build 0)  -->
<svg version="1.1" id="Calque_1" xmlns="http://www.w3.org/2000/svg" xmlns:xlink="http://www.w3.org/1999/xlink" x="0px" y="0px"
	 viewBox="0 0 29 28" style="enable-background:new 0 0 29 28;" xml:space="preserve">
<style type="text/css">
	.st0{fill:#14F661;}
</style>
<path class="st0" d="M23.5,15.9v6.7h-3.9v-6.2c0-1.6-0.6-2.6-2-2.6c-1.1,0-1.7,0.7-2,1.4c-0.1,0.2-0.1,0.6-0.1,0.9v6.5h-3.9
	c0,0,0.1-10.5,0-11.6h3.9v1.6l0,0h0v0c0.5-0.8,1.4-1.9,3.5-1.9C21.6,10.7,23.5,12.4,23.5,15.9z M7.7,5.4c-1.3,0-2.2,0.9-2.2,2
	c0,1.1,0.8,2,2.1,2h0c1.3,0,2.2-0.9,2.2-2C9.8,6.3,9,5.4,7.7,5.4z M5.7,22.6h3.9V11H5.7V22.6z"/>
</svg>
