<svg width="29" height="28" viewBox="0 0 29 28" fill="none" xmlns="http://www.w3.org/2000/svg">
<path d="M23.5 15.9497V22.6045H19.6419V16.3953C19.6419 14.8351 19.0836 13.7709 17.6876 13.7709C16.6216 13.7709 15.9867 14.4888 15.708 15.1823C15.6061 15.4303 15.58 15.7757 15.58 16.1229V22.6045H11.7201C11.7201 22.6045 11.7724 12.0889 11.7201 10.9986H15.58V12.6436L15.5547 12.6814H15.58V12.6436C16.0922 11.8544 17.0076 10.7262 19.0575 10.7262C21.5962 10.7262 23.5 12.3856 23.5 15.9497ZM7.68338 5.40443C6.36397 5.40443 5.5 6.2702 5.5 7.40924C5.5 8.52302 6.33872 9.41495 7.63287 9.41495H7.65812C9.00458 9.41495 9.8406 8.52302 9.8406 7.40924C9.81715 6.2702 9.00458 5.40443 7.68338 5.40443ZM5.72907 22.6045H9.58718V10.9986H5.72907V22.6045Z" fill="#001AFF"/>
</svg>
