<svg width="29" height="25" viewBox="0 0 29 25" fill="none" xmlns="http://www.w3.org/2000/svg">
<path d="M5.5 7.00446C5.5 6.47402 5.71071 5.96531 6.08579 5.59024C6.46086 5.21517 6.96957 5.00446 7.5 5.00446H21.5C22.0304 5.00446 22.5391 5.21517 22.9142 5.59024C23.2893 5.96531 23.5 6.47402 23.5 7.00446V17.0045C23.5 17.5349 23.2893 18.0436 22.9142 18.4187C22.5391 18.7937 22.0304 19.0045 21.5 19.0045H7.5C6.96957 19.0045 6.46086 18.7937 6.08579 18.4187C5.71071 18.0436 5.5 17.5349 5.5 17.0045V7.00446Z" stroke="#001AFF" stroke-width="2" stroke-linecap="round" stroke-linejoin="round"/>
<path d="M5.5 7.00446L14.5 13.0045L23.5 7.00446" stroke="#001AFF" stroke-width="2" stroke-linecap="round" stroke-linejoin="round"/>
</svg>
