<?xml version="1.0" encoding="utf-8"?>
<!-- Generator: Adobe Illustrator 26.3.1, SVG Export Plug-In . SVG Version: 6.00 Build 0)  -->
<svg version="1.1" id="Calque_1" xmlns="http://www.w3.org/2000/svg" xmlns:xlink="http://www.w3.org/1999/xlink" x="0px" y="0px"
	 viewBox="0 0 31 31" style="enable-background:new 0 0 31 31;" xml:space="preserve">
<style type="text/css">
	.st0{fill:#FFFFFF;}
</style>
<path class="st0" d="M15.5,12c-0.8,0-1.6,0.3-2.1,0.9c-0.6,0.6-0.9,1.3-0.9,2.1s0.3,1.6,0.9,2.1c0.6,0.6,1.3,0.9,2.1,0.9
	c0.8,0,1.6-0.3,2.1-0.9c0.6-0.6,0.9-1.3,0.9-2.1s-0.3-1.6-0.9-2.1C17.1,12.3,16.3,12,15.5,12z M15.5,10c1.3,0,2.6,0.5,3.5,1.5
	c0.9,0.9,1.5,2.2,1.5,3.5S20,17.6,19,18.5c-0.9,0.9-2.2,1.5-3.5,1.5s-2.6-0.5-3.5-1.5c-0.9-0.9-1.5-2.2-1.5-3.5s0.5-2.6,1.5-3.5
	C12.9,10.5,14.2,10,15.5,10z M22,9.8c0,0.3-0.1,0.6-0.4,0.9c-0.2,0.2-0.6,0.4-0.9,0.4s-0.6-0.1-0.9-0.4c-0.2-0.2-0.4-0.6-0.4-0.9
	c0-0.3,0.1-0.6,0.4-0.9s0.6-0.4,0.9-0.4s0.6,0.1,0.9,0.4S22,9.4,22,9.8z M15.5,7c-2.5,0-2.9,0-4,0.1c-0.8,0-1.3,0.1-1.8,0.3
	C9.3,7.5,8.9,7.8,8.6,8.1C8.3,8.4,8,8.8,7.9,9.2c-0.2,0.5-0.3,1-0.3,1.8c-0.1,1.1-0.1,1.5-0.1,4s0,2.9,0.1,4c0,0.8,0.1,1.3,0.3,1.8
	c0.2,0.4,0.4,0.7,0.7,1.1c0.3,0.3,0.6,0.5,1.1,0.7s1,0.3,1.8,0.3c1.1,0.1,1.5,0.1,4,0.1s2.9,0,4-0.1c0.8,0,1.3-0.1,1.8-0.3
	c0.4-0.2,0.8-0.4,1.1-0.7c0.3-0.3,0.5-0.6,0.7-1.1s0.3-1,0.3-1.8c0.1-1.1,0.1-1.5,0.1-4s0-2.9-0.1-4c0-0.8-0.1-1.3-0.3-1.8
	c-0.2-0.4-0.4-0.8-0.7-1.1c-0.3-0.3-0.7-0.6-1.1-0.7c-0.5-0.2-1-0.3-1.8-0.3C18.4,7,18,7,15.5,7z M15.5,5c2.7,0,3.1,0,4.1,0.1
	c1.1,0.1,1.8,0.2,2.4,0.5c0.7,0.3,1.2,0.6,1.8,1.2c0.5,0.5,0.9,1.1,1.2,1.8c0.2,0.6,0.4,1.4,0.5,2.4c0,1.1,0.1,1.4,0.1,4.1
	s0,3.1-0.1,4.1c-0.1,1.1-0.2,1.8-0.5,2.4c-0.3,0.7-0.6,1.3-1.2,1.8c-0.5,0.5-1.1,0.9-1.8,1.2c-0.6,0.2-1.4,0.4-2.4,0.5
	c-1.1,0-1.4,0.1-4.1,0.1s-3.1,0-4.1-0.1c-1.1,0-1.8-0.2-2.4-0.5c-0.7-0.3-1.3-0.6-1.8-1.2c-0.5-0.5-0.9-1.1-1.2-1.8
	c-0.2-0.6-0.4-1.4-0.5-2.4c0-1.1-0.1-1.4-0.1-4.1s0-3.1,0.1-4.1C5.6,9.8,5.8,9.1,6,8.5c0.3-0.7,0.6-1.3,1.2-1.8
	C7.7,6.2,8.3,5.8,9,5.5c0.6-0.2,1.4-0.4,2.4-0.5C12.4,5,12.8,5,15.5,5z"/>
</svg>
