<svg width="31" height="31" viewBox="0 0 31 31" fill="none" xmlns="http://www.w3.org/2000/svg">
<path d="M15.5 12.0045C14.7044 12.0045 13.9413 12.3205 13.3787 12.8831C12.8161 13.4457 12.5 14.2088 12.5 15.0045C12.5 15.8001 12.8161 16.5632 13.3787 17.1258C13.9413 17.6884 14.7044 18.0045 15.5 18.0045C16.2956 18.0045 17.0587 17.6884 17.6213 17.1258C18.1839 16.5632 18.5 15.8001 18.5 15.0045C18.5 14.2088 18.1839 13.4457 17.6213 12.8831C17.0587 12.3205 16.2956 12.0045 15.5 12.0045ZM15.5 10.0045C16.8261 10.0045 18.0979 10.5312 19.0355 11.4689C19.9732 12.4066 20.5 13.6784 20.5 15.0045C20.5 16.3305 19.9732 17.6023 19.0355 18.54C18.0979 19.4777 16.8261 20.0045 15.5 20.0045C14.1739 20.0045 12.9021 19.4777 11.9645 18.54C11.0268 17.6023 10.5 16.3305 10.5 15.0045C10.5 13.6784 11.0268 12.4066 11.9645 11.4689C12.9021 10.5312 14.1739 10.0045 15.5 10.0045ZM22 9.75446C22 10.086 21.8683 10.4039 21.6339 10.6383C21.3995 10.8728 21.0815 11.0045 20.75 11.0045C20.4185 11.0045 20.1005 10.8728 19.8661 10.6383C19.6317 10.4039 19.5 10.086 19.5 9.75446C19.5 9.42294 19.6317 9.10499 19.8661 8.87057C20.1005 8.63615 20.4185 8.50446 20.75 8.50446C21.0815 8.50446 21.3995 8.63615 21.6339 8.87057C21.8683 9.10499 22 9.42294 22 9.75446ZM15.5 7.00446C13.026 7.00446 12.622 7.01146 11.471 7.06246C10.687 7.09946 10.161 7.20446 9.673 7.39446C9.26462 7.54439 8.89541 7.78472 8.593 8.09746C8.28001 8.39985 8.03935 8.76904 7.889 9.17746C7.699 9.66746 7.594 10.1925 7.558 10.9755C7.506 12.0795 7.499 12.4655 7.499 15.0045C7.499 17.4795 7.506 17.8825 7.557 19.0335C7.594 19.8165 7.699 20.3435 7.888 20.8305C8.058 21.2655 8.258 21.5785 8.59 21.9105C8.927 22.2465 9.24 22.4475 9.67 22.6135C10.164 22.8045 10.69 22.9105 11.47 22.9465C12.574 22.9985 12.96 23.0045 15.499 23.0045C17.974 23.0045 18.377 22.9975 19.528 22.9465C20.31 22.9095 20.836 22.8045 21.325 22.6155C21.733 22.4648 22.1021 22.2246 22.405 21.9125C22.742 21.5765 22.943 21.2635 23.109 20.8325C23.299 20.3405 23.405 19.8145 23.441 19.0325C23.493 17.9295 23.499 17.5425 23.499 15.0045C23.499 12.5305 23.492 12.1265 23.441 10.9755C23.404 10.1935 23.298 9.66546 23.109 9.17746C22.9583 8.76947 22.718 8.40044 22.406 8.09746C22.1037 7.7843 21.7345 7.54362 21.326 7.39346C20.836 7.20346 20.31 7.09846 19.528 7.06246C18.425 7.01046 18.04 7.00446 15.5 7.00446ZM15.5 5.00446C18.217 5.00446 18.556 5.01446 19.623 5.06446C20.687 5.11446 21.413 5.28146 22.05 5.52946C22.71 5.78346 23.266 6.12746 23.822 6.68246C24.3305 7.18235 24.724 7.78704 24.975 8.45446C25.222 9.09146 25.39 9.81746 25.44 10.8825C25.487 11.9485 25.5 12.2875 25.5 15.0045C25.5 17.7215 25.49 18.0605 25.44 19.1265C25.39 20.1915 25.222 20.9165 24.975 21.5545C24.7246 22.2222 24.3311 22.8271 23.822 23.3265C23.322 23.8348 22.7173 24.2282 22.05 24.4795C21.413 24.7265 20.687 24.8945 19.623 24.9445C18.556 24.9915 18.217 25.0045 15.5 25.0045C12.783 25.0045 12.444 24.9945 11.377 24.9445C10.313 24.8945 9.588 24.7265 8.95 24.4795C8.28233 24.2289 7.67753 23.8354 7.178 23.3265C6.66943 22.8266 6.27596 22.2219 6.025 21.5545C5.777 20.9175 5.61 20.1915 5.56 19.1265C5.512 18.0605 5.5 17.7215 5.5 15.0045C5.5 12.2875 5.51 11.9485 5.56 10.8825C5.61 9.81646 5.777 9.09246 6.025 8.45446C6.27524 7.78663 6.6688 7.18178 7.178 6.68246C7.67767 6.17369 8.28243 5.78018 8.95 5.52946C9.587 5.28146 10.312 5.11446 11.377 5.06446C12.444 5.01746 12.783 5.00446 15.5 5.00446Z" fill="#001AFF"/>
</svg>
