<svg width="177" height="65" viewBox="0 0 177 65" fill="none" xmlns="http://www.w3.org/2000/svg">
<path d="M80.5001 8V32C80.5001 34.1217 81.3429 36.1566 82.8432 37.6569C84.3435 39.1571 86.3783 40 88.5001 40C90.6218 40 92.6566 39.1571 94.1569 37.6569C95.6572 36.1566 96.5001 34.1217 96.5001 32V8C96.5001 5.87827 95.6572 3.84344 94.1569 2.34315C92.6566 0.842854 90.6218 0 88.5001 0C86.3783 0 84.3435 0.842854 82.8432 2.34315C81.3429 3.84344 80.5001 5.87827 80.5001 8Z" fill="url(#paint0_linear_19_830)"/>
<path d="M24.5001 64.0044C22.3771 64.0044 20.3412 63.1611 18.8401 61.66L2.84005 45.66C1.33893 44.1589 0.495605 42.1229 0.495605 40C0.495605 37.8771 1.33893 35.8411 2.84005 34.34C4.34118 32.8389 6.37714 31.9956 8.50005 31.9956C10.623 31.9956 12.6589 32.8389 14.1601 34.34L30.1601 50.34C31.6612 51.8411 32.5045 53.8771 32.5045 56C32.5045 58.1229 31.6612 60.1589 30.16 61.66C28.6589 63.1611 26.623 64.0044 24.5001 64.0044Z" fill="url(#paint1_linear_19_830)"/>
<path d="M155.563 63.3931C154.592 63.7946 153.551 64.0008 152.5 64C150.917 64.0012 149.369 63.5327 148.052 62.6538C146.735 61.7748 145.709 60.5249 145.103 59.0623C144.497 57.5997 144.339 55.9902 144.648 54.4375C144.957 52.8849 145.72 51.4588 146.84 50.34L162.84 34.34C164.341 32.8389 166.377 31.9956 168.5 31.9956C170.623 31.9956 172.659 32.8389 174.16 34.34C175.661 35.8411 176.505 37.8771 176.505 40C176.505 42.1229 175.661 44.1589 174.16 45.66L158.16 61.66C157.417 62.4027 156.534 62.9916 155.563 63.3931Z" fill="url(#paint2_linear_19_830)"/>
<defs>
<linearGradient id="paint0_linear_19_830" x1="88.1224" y1="-4.49998e-09" x2="88.1723" y2="64.0047" gradientUnits="userSpaceOnUse">
<stop stop-color="#3300FF"/>
<stop offset="1" stop-color="#FF00B8"/>
</linearGradient>
<linearGradient id="paint1_linear_19_830" x1="88.1224" y1="-4.49998e-09" x2="88.1723" y2="64.0047" gradientUnits="userSpaceOnUse">
<stop stop-color="#3300FF"/>
<stop offset="1" stop-color="#FF00B8"/>
</linearGradient>
<linearGradient id="paint2_linear_19_830" x1="88.1224" y1="-4.49998e-09" x2="88.1723" y2="64.0047" gradientUnits="userSpaceOnUse">
<stop stop-color="#3300FF"/>
<stop offset="1" stop-color="#FF00B8"/>
</linearGradient>
</defs>
</svg>
